<svg width="512" height="512" clip-rule="evenodd" fill-rule="evenodd" image-rendering="optimizeQuality" shape-rendering="geometricPrecision" text-rendering="geometricPrecision" version="1.1" viewBox="0 0 7314.3 7314.3" xml:space="preserve" xmlns="http://www.w3.org/2000/svg">
 <defs><style type="text/css">
   <![CDATA[
    .str2 {stroke:#373435;stroke-width:6.53;stroke-miterlimit:2.61313}
    .str1 {stroke:#062D51;stroke-width:6.53;stroke-miterlimit:2.61313}
    .str0 {stroke:#062D51;stroke-width:6.53;stroke-miterlimit:2.61313}
    .fil12 {fill:none}
    .fil35 {fill:#6B809B}
    .fil1 {fill:#021A3D}
    .fil4 {fill:#062D51}
    .fil0 {fill:#062D51}
    .fil27 {fill:#0A3B63}
    .fil29 {fill:#0FADD0}
    .fil17 {fill:#120B13}
    .fil16 {fill:#175BA2}
    .fil8 {fill:#19458C}
    .fil20 {fill:#1977B7}
    .fil13 {fill:#2697C8}
    .fil5 {fill:#2767A9}
    .fil7 {fill:#37B8D7}
    .fil25 {fill:#4772AA}
    .fil10 {fill:#47C9E4}
    .fil23 {fill:#4D6F8F}
    .fil3 {fill:#56B9C8}
    .fil18 {fill:#68D6E5}
    .fil19 {fill:#95DDE4}
    .fil9 {fill:#B7D8E5}
    .fil32 {fill:#D37031}
    .fil34 {fill:#D48950}
    .fil14 {fill:#D7E5EB}
    .fil26 {fill:#DC5622}
    .fil24 {fill:#E28C30}
    .fil22 {fill:#EF732A}
    .fil15 {fill:#F24E12}
    .fil6 {fill:#F69837}
    .fil11 {fill:#F97609}
    .fil33 {fill:#F9D48A}
    .fil21 {fill:#FA3809}
    .fil31 {fill:#FAB24E}
    .fil28 {fill:#FBCE6D}
    .fil30 {fill:#FCC459}
    .fil2 {fill:white}
   ]]>
  </style></defs>
 <g transform="translate(0 .010926)">
  
  <g transform="translate(12.026 406.78)">
   <path class="fil0 str0" d="m2572.4 2368.8c-81.05 15.22-147.38 11.45-229.66 11.25-168.78-0.4-113.82-87.29-93.93-101.84 35-25.62 171.53-13.51 223.25-19.08 89.15-9.6 120.67 20.26 100.33 109.67zm-745.09-404.97c108.31-15.77 256.75-5.93 369.88-5.35 43.78 0.23 139.33-6.1 175.41 13.87 58.17 32.22 15.37 85.33-30.78 94.31-39.71 7.73-509.61 15.51-551.89-15.81-84.03-62.28-18.23-78.93 37.38-87.02zm493.73-208.87c-46.56-0.03-221.7 10.28-201.27-78.56 12.35-53.72 64.9-41.8 106.51-40.73 45.84 1.18 92.55-0.18 138.48-0.64 76.94-0.78 224.75-34.35 203.1 80.93-38.66 61.7-180 39.06-246.83 39zm678.9 180.38c2.54 114.57 12.63 378.16-2.18 479.73-23.36 160.16-241.11 139.5-264.77 2.51-24.4-101.51-7.04-597.33-6.46-737.3 0.35-85.98-11.3-299.48 2.87-369.85 24.01-119.11 201.58-125.16 273.01-90.98zm-576.69-1096.6-295.35 231.3-371.43 15.42-159.05 218.3 942.19 2.15c31.7 24.36 31.3 52.11 20.22 88.69-61.29 52.44-250.19 22.37-335.72 24.24l-714.44-7.26-135.31 218.96 584.02 3.03 6.9 8 5.57 96.92-5.6 13.42-703.59 3.44-5.25 19.21-22.59 150.46-8.28-0.89 278.26 0.27 6.05 11.61-183.33 535.9-270.74 8.65-15.46 94.2-42.1 121.98c517.19 45.27 1972.3-54.9 2298.2 25.37 654.89 161.3 971.13 809.76 750.12 1444.4l-56.99 158.71 48.17-47.07 63.23 426.43 68.99-512.53 20.94 5.29 117.51-558.95 16.27 15.55 81.16-718.98 12.67 80.75c69.93-10.97 26.46-212.05 95.1-265.68 42.53-33.23 278.03-17.31 343.26-15.57 127.2 3.4 237.36-36.22 240.61 110.81 1.21 54.97 20.55 322.63-21.83 334.2l-12.92-171.47-116.01 621.56c21.75 13.87 733.03 12.15 820.28 13.01 17.94-23.31 28.91-425.48 32.14-487.28l26.93 62.65c59.24-82.3 82.31-428.95 122.89-467.67 43.87-41.86 515.51-36.64 549.01-1.71l17.41 15.08 4.25 645.2 50.93 1.47 84.09-384 1.85 68.52 10.86-15.54 85.95 505.52 6.77 296.32 77.46-23.02 7.34-192.29 32.33 0.12 9.74 388.21c224.93-558.19-17.03-1840.7-388.88-2326.1l-87.69-112.6-16.75-3.02-38.05 75.45 6.25 10.19-167.63 28.06-8.42-12.46 3.54-87.83-19.96 17.79-254.62-216.47c173.98 158.83 692.1 934.72 634.41 1146.2l-174.41 1.24c-25.71-25.6-204.14-448.35-260.68-541.61-207.52-342.29-201.52-145.19-214.37-584.28l-43.06 217.41-33.16-206.56-20.42 3.65-9.16-479.64h-23.25l-11.79 1421.3-7.44-2.87-43.27 141.89-8.88 18.02-2572 2.89 14.22-23.91 14.06-1616c12.54-100.27 527.24-51.57 630.26-51.74 225.86-0.36 451.78 0.27 677.66 0.28 228.31 0.02 456.63 0.16 684.93-0.08 149.18-0.16 531.34-61.42 549.83 126.22l11.33 403.68c18.71-26.64 7.11-327.02 5.11-386.39-5.04-150-84.32-158.31-216.45-155.45-259.73 5.62-519.77 1.25-779.74 2.4-260.08 1.17-1392.3-42.93-1549.2-5.83l-39.27-2.5-46.05 725.1c-17.86-0.54-45.8-16.74-63.03-24.36 13.56-818.46-200.32-349.18-407.93-521.12l110.94-81.35-82.46-32.01 57.46-22.47-100.37 8.16-74.94-104.57-100.26 35.86z"/>
   <path class="fil1" d="m3099.4 5339.8c77.34 130.02 35.32 283.58 292.79 273.93 210.24-7.88 394.49-5.61 604.52 8.46 51.04 3.42 526.51 9.2 520.52-36.97-3.2-24.67-290.58-21.24 188.23-44.62 471.29-23 281.46-270.04 846.54-238.08 420.24 23.77 141.35 104.92 113.1 181.82-39.26 106.86-173.74 111.81-294.42 183.3-268.62 159.11-78.55 108.87-435.21 144.68-121.15 12.17-202.26 86.59-415.52 102.01-221.94 16.04-629.97 37.76-819.09-64.85-140.09-76.02-432.98-8.04-482.12-74.45-17.49-23.64-301.02-211.66-309.52-212.26-106.34-7.56-213.88-12.43-235.95-169.9-17.87-127.5 389.17-115.19 426.12-53.06zm3280.4-786.78c-46.14-167.24 74.14-384.93 86.76-552.63 5.94-78.97 25.65-558.37-13.28-584.36l-36.96-5.49-62.55 421.6-29.99-2.83-75.02 694.06-25.04-6.97-112.33 529.89 25.85 5.48c-117.07 125.99-181.72 80.75-347.74 83.78-127.02 2.32-308.65 48.17-328.08-102.55-0.66-5.09 66.59-282.83 71.75-348.33 7.68-97.39 23.77-292.15 39.71-383.08l16.32 86.14 23.19 0.21 37.23-195.94-779.04-10.02-10.66 177.64-17.54-0.41-3.05-155.73-16.52-2.53-188.65 930.11-595.1 4.6-25.66-21.58 87.53-409.43-63.23-426.43-48.17 47.07-383.53 520.1-29.56-10.23 356.94 592.46-621.36 6.58-207.12-358.94-251.58 40.84-1205.8 19.32 18.22 13.33c290.26 194.41-18.03 210.66 495.55 206.32 231.32-1.96 241.42 135.32 440.55 263.76 336.96 217.32 562.96 351.7 959.6 454.04 898.27 231.77 1491 39 2251.8-410.33 211.66-164.73 422.85-337.8 578.9-559.71 204.13-290.27 253.48-452.21 409.1-742.75l85.71-305.84-9.74-388.21-32.33-0.12-7.34 192.29-77.46 23.02-6.77-296.32-85.95-505.52c7.58 301.43 34.54 547.26-35.18 856.15-22.24 98.53-197.56 607.14-254.53 660.55l2.22-43.05z"/>
   <path class="fil2" d="m4290.6 1523.9-1.61 89.69c-60.57 4.21-342.2 13.59-372.2-7.61l-6.84-501.89 364.87 0.68-2.14 87.28-241.08 12.64 0.08 97.15 224.77 0.12 2.1 98.61-232.31 5.57 1.08 105.32 263.29 12.43zm931.04-273.46c24.71 87.31 363.77 49.03 279.84 263.39-61.43 156.91-272.19 115.16-389.61 49.51l25.86-72.58 239.92 32.15 3.44-25.69c50.08-93.18-153.18-80.61-219.25-136.4-83.44-70.47-57.13-195.11 39.26-240.11 55.95-26.12 284.1-40.33 278.79 37.95-9.35 137.98-219.86-49.17-258.25 91.77zm-673.93 212.79 8.96-4.29 96.46-352.36 104.46 0.11 102.42 347.04 104.23-341.12 106.21-3.5-139.83 502.61-125.25-3.1-95.74-314.7-102.11 318.85-118.75 1.41-164.43-503.06 122.65 1.05 100.74 351.06zm-1392.3-538.35 60.68 717.95 12.23-0.3 10.14-153.75 10.65-1.08 11.69 84.69 2.06-9.75 98.4 49.15-2.24-506.71c155.52-10.37 250.3 195.36 325.2 311.5l0.35-309.08 121.76-3.79 1.59 513.68c-145.63-20.65-102 3.92-196.96-126.94-30.41-41.9-126.89-141.54-131.35-181.97l16.39 320.86 17.4-0.61 5.17-139.76 17.71 0.17 0.28 175.68-218.27 9.53c-23.36 120.76 875.34 26.15 914.68 77.08l44.32 587.41 27.43-601.58 1224.2-0.26-34.04 58.51-2.55 103.46c-27.5 7.64-756.65 1.12-890.57 0.63-117.99-0.44-221.95 42.08-224.32-69.58l-28.05 100.84 2.78 24.18 1164.5 14.14-8.69-0.15 47.84 155.69 22.09-204.44c36.49-25.9 88.4-18.83 111.62-91.89 30.95-97.39-13.85-715.09 8.53-828.85-18.5-187.64-400.66-126.37-549.83-126.22-228.31 0.24-456.62 0.1-684.93 0.08-225.87-0.02-451.79-0.64-677.66-0.28-103.02 0.17-617.72-48.54-630.26 51.74z"/>
   <path class="fil0 str0" d="m3359.1 678.21c8.62-41.7 507.02-106.64 571.09-109.56 200.36-9.1 455.76 11.71 652.58 52.65 335.18 69.72-519.11 63.99-520.27 63.99-108.37 0.16-639.5 9.1-703.4-7.09zm-935.89 160.56 100.26-35.86 74.94 104.57 100.37-8.16-57.46 22.47 82.46 32.01-110.94 81.35c207.61 171.94 421.49-297.34 407.93 521.12 17.23 7.62 45.17 23.81 63.03 24.36l46.05-725.1 39.27 2.5c156.85-37.1 1289.1 7 1549.2 5.83 259.97-1.16 520 3.21 779.74-2.4 132.13-2.86 211.41 5.46 216.45 155.45 2 59.37 13.6 359.75-5.11 386.39l-1.39 1140.6 43.27-141.89 7.44 2.87 11.79-1421.3h23.25l9.16 479.64 20.42-3.65 33.16 206.56 43.06-217.41 15.06-21.58 254.62 216.47 19.96-17.79-3.54 87.83 8.42 12.46 167.63-28.06-6.25-10.19 38.05-75.45 16.75 3.02 87.69 112.6-610.7-826.99-305.25-215.99c-126.31 8.03-572.26-222.51-746.6-279.45-269.28-87.94-628.63-122.02-910.41-109.36-459.83 20.65-1157.5 224.93-1501.8 542.53z"/>
   <path class="fil3" d="m1763.8 1068.1c117.55-85.38 267.22-191.48 357.2-306.12 43.06-54.87 127.04-90.09 188.05-75.79 38.95 9.13 47.62-21.4 59.21 10.66 6.5 17.98-36.89 30.88-37.1 58.75l58.73-12.9-352.76 320.88 90.82 6.46 295.35-231.3c344.24-317.6 1041.9-521.88 1501.8-542.53 281.79-12.66 641.13 21.42 910.41 109.36 174.34 56.94 620.29 287.48 746.6 279.45-100.43-123.75-590.43-309.31-754.84-352.12-162.58-42.33-259.33-51.19-415.92-77.26-59.5-9.9-430.96-51.88-432.77-52.77l-1.82-22.91 143.5-11.4-32.35-106.15c783.72 29.45 1388.2 247.12 1967.9 779.45 131.74 31.34 917.03 1043.1 759 1123.3l6.77-42.9-17.79-10.34-85.01 64.68c-13.82-9.8-94.03-222.41-115.13-256.65-55.31-89.72-60.28-61.43-110.74-115.12-11.05-11.75-52.37-97.77-79.53-133.02-65.93-85.59-122.1-160.47-192.24-243.87-64.85-77.11-191.63-180.44-231.26-241.98l-102.56-84.99 610.7 826.99c371.85 485.43 613.81 1768 388.88 2326.1l-85.71 305.84 124.15-339.84 31.05 79.14c63.96-92.84 82.19-644.95 85.24-784.38 1.5-68.34-7.93-349.47-46.6-391.76-47.44-51.87-31.68-92.94-30.55-166.96 1.74-113.65 52.43-78.52 75.62-95.6l-0.75-87.82 40.95 25.93 27.8-45.52 97.43 553.2-26.46-395.29c88.06 121.48 64.34 861.01 54.38 1039.6-24.08 431.88-224.01 801.92-219.29 876.74l-14.15 56.62c697.06-1364.7 67.82-3217.9-1133.9-4100.7-1236.6-908.45-3136.9-762.9-4102.3 484.68z"/>
   <path class="fil4" d="m2740.4 4345.5 385.62-282.97 184.32 317.83c176.11-78.36 246.68-475.46 244.65-653.01-3.53-310.18-145.78-382.1-377.22-507.76-1142-304.07-1456.6 1621.4-303.66 1402.9l11.57-5.85-145.29-271.09z"/>
   <path class="fil5" d="m6228.7 5416.3c109.16 5.55 289.71-110.97 98.89 106.93-114.3 130.53-347.38 317.96-495.39 410.4-904.97 565.23-1797.2 626.75-2780.5 217.94-291.96-121.38-891.57-489.11-1067.1-746.89 261.91-43.85 762.21 421.2 1079.3 567.19 397.61 183.09 1091.6 350.38 1525.4 252.28l-28.08-15.33c404.86-55.59 926.35-148.7 1240.8-440.97l11.12-105.42c-760.73 449.33-1353.5 642.11-2251.8 410.33-396.63-102.34-622.63-236.72-959.6-454.04-199.13-128.44-209.23-265.71-440.55-263.76-513.57 4.34-205.28-11.91-495.55-206.32 699.09 866.79 1745.9 1467.7 2892.2 1333.2 1002.3-117.6 2090.1-824.19 2442.1-1797.8l14.15-56.62-300.78 509.93-28.14-17.66 266.77-483.49-30.86 8.02-92.74-154.67 48.37 7.47-648.02 919.23z"/>
   <path class="fil6" d="m6208.9 4183-199.93 856.85-449.86 0.08c-5.69-44.32 156.44-782.98 178.78-890.83l-22.54-25.39c-128.43-0.77-893.22-13.37-954.86-0.85l-182.25 922.22-455.19-9.68 241.01-1250.7 1.61 135.07c30.07 6.75 1378.7-13.81 1627.8-11.84 408.92 3.23 138.82-185.62 276.54-262.44l-61.13 537.49zm-1289.8-1018.2c-59.63 78.49 4.22 181.22-107.84 225.48-32.42 12.8-210.87 16.48-239.11 4.43l-15.23 1.95-14.13-292.51-130.74 634.9-18.73-3.22 8.13-365.59-339.22 1733.3 537.29 7.89c20.41-99.48 183.94-943.65 202.36-963.01l891.45 0.26-191.28 954.28c44.68 18.06 460.09 9.32 541.5 9.74l406.11-2047.3 4.78-67.84-143.28 563.14-28.24-6.33 104.01-499.01-98.65 347.11-282.62-26.99-10.55 15.24-22.05-240.51-125.02 587.01-1050 1.82-10.68-6.97 68.61-270.45 7.16 213.72 8.46 14.08 911.21-30.14-876.23 3.34-12.52-9.14 134.56-698.95-2.47-45.3-107.21 451.14-28.45-5.99 28.64-189.58z"/>
   <path class="fil7" d="m904.41 2883.6 61.27 239.48 1.76 5.46 19.3-242.11 1296.8-2.82c-380.82 229.74-127.62 241.57-647.43 245.3-45.18 0.32-187.8-5.6-219.34 7.85-56.03 23.89-52.71 110.87-8.65 141.56 43.16 30.06 345.62 17.17 423.28 23.24l-138.97 230.12-362.32 0.91-45.77 29.05 234.27 22.89c32.46 21.97 187.39 18.87 231.02 3.13 29.98-10.81 82.87-106.83 98.96-139.76l-6.33 14.94 325.79 129.82-43.7 113.48-64.32 358.22c7.18 214.7 113.21 433.7 298.59 550.79 143.54 90.67 720.85 183.14 607.9 15.42l-30.25-40.82-8.66-2.38-28.3 50.03 5.46-16.1-164.32-275.8 145.29 271.09-11.57 5.85c-1153 218.55-838.32-1706.9 303.66-1402.9l109.19 15.9 4.88-11.93-56.15-36.7 63.6 3.37c-169.24-167.35-1028.4 37.38-1113.7-132.87l-10.14-20.19 380.26-180.97 61.48-99.23c-230.63-28.6-712.57-5.56-988.45-5.56-167.6 0-335.45-0.89-503.01 0.14-117.39 0.73-396.53-74.5-221.4 132.05z"/>
   <path class="fil8" d="m6228.7 5416.3-426.68 351.55c-314.41 292.27-835.9 385.38-1240.8 440.97l28.08 15.33c-433.8 98.1-1127.8-69.19-1525.4-252.28-317.05-145.99-817.35-611.05-1079.3-567.19 175.49 257.78 775.11 625.51 1067.1 746.89 983.31 408.81 1875.5 347.29 2780.5-217.94 148-92.44 381.09-279.87 495.39-410.4 190.82-217.9 10.27-101.37-98.89-106.93z"/>
   <path class="fil9" d="m4907.8 2383.4c-92.01 0.18-528.45 40.51-533.17-47.02-5.35-99.16 147.07-62.36 241.71-62.14 97.16 0.23 194.3 0.19 291.46 0.38 80.31 0.16 541.97-10.68 584.67 4.5l-1.34 102.61c-22.95 10.65-512.32 1.52-583.33 1.66zm648.06-258.61c-4.88 112.51 14.75 36.69-114.43 62.53-41.39 8.28-428.35-15.66-475.82-17.72-68.79-2.99-270.5 15.63-346.57 22.32-122.26 10.75-242.75-51.54-319.96 57.3l25.44 11.99-64.13 136.02-35.12-18.04-20.51-584.65 3.53 590.53-846 7.41-34.55-414.68h-15.89l-52.28 36.16-3.78-11.46-5.77-111.66-8.63-0.01-14.84 626.65 6.99 6.31 2465.6 38.11 8.88-18.02 1.39-1140.6-11.33-403.68c-22.38 113.76 22.42 731.46-8.53 828.85-23.22 73.06-75.12 65.99-111.62 91.89l-22.09 204.44z"/>
   <path class="fil10" d="m904.41 2883.6c-175.13-206.55 104.01-131.31 221.4-132.05 167.56-1.04 335.41-0.14 503.01-0.14 275.88 0 757.82-23.05 988.45 5.56l-61.48 99.23 634.2-63.7c226.56-4.03 617.89 213.09 700.02 432.13l126.78 370.98-30.24 6.3 2.11-38.63c-14.36-0.79-149.11 0.1-185.54-10.35-137.77-39.51-93.91 10.77-111.11 97.98l-28.33-131.06-66.25 0.51 20.46-16.81-318.55-313.33-63.6-3.37 56.15 36.7-4.88 11.93-109.19-15.9c231.44 125.65 373.69 197.58 377.22 507.76 2.02 177.55-68.54 574.65-244.65 653.01l-184.32-317.83-385.62 282.97 164.32 275.8-5.46 16.1 28.3-50.03 8.66 2.38 30.25 40.82-70.36-168.97-49.56-113.75 237.09-165.57 11.08-1.25 200.68 311.57 8.86 4.95 84.54-78.19 107.33-155.66c33.71-111.92 143.28-202.38 109.92-353.48-8.54-38.65-39.11-342.34-0.99-355.03l28.74 360.49c53.68-0.33 388.01 6.83 410.58-7.98l2.06 258.83c221.01-634.65-95.23-1283.1-750.12-1444.4-325.91-80.27-1781 19.91-2298.2-25.37l42.1-121.98 200.46-751.05c-75.03 105.02-134.43 499.47-190.27 603.19-45.29 84.13-6.04 238.36-121.15 282.96-137.78 53.38-162.48 156.91-24.91 173.72z"/>
   <path class="fil11" d="m4542.2 5010.3c-72.83 10.48-333.67 21.02-384.04-0.33l169.86-822.53c53.54 54.33 8.78 106.69 186.57 102.01 177.75-4.67 182.83-88.9 161.35 6.17-16.48 72.92-133.61 714.5-133.74 714.68zm1666.7-827.29-33.1-58.4-9.5 2.23-140.54 641.24-43.88 251.32-367.32-1.18-9.3-5.67 95.24-494.42c4.89-88.06 61.6-426.93 127.41-440.86 271.97-57.57 168.33 29.17 318.21 29.25l31.7-67.98 27.1 11.34zm0 0 61.13-537.49c-137.72 76.82 132.38 265.67-276.54 262.44-249.15-1.97-1597.7 18.6-1627.8 11.84l-1.61-135.07-241.01 1250.7 455.19 9.68 182.25-922.22c61.64-12.51 826.44 0.08 954.86 0.85l22.54 25.39c-22.33 107.85-184.46 846.51-178.78 890.83l449.86-0.08 199.93-856.85z"/>
   <path class="fil12" d="m4013.4 5114 25.66 21.58 595.1-4.6 188.65-930.11 16.52 2.53 3.05 155.73 17.54 0.41 10.66-177.64 779.04 10.02-37.23 195.94-23.19-0.21-16.32-86.14c-15.94 90.93-32.04 285.69-39.71 383.08-5.16 65.49-72.41 343.24-71.75 348.33 19.43 150.72 201.06 104.87 328.08 102.55 166.02-3.03 230.67 42.21 347.74-83.78l-25.85-5.48 112.33-529.89 25.04 6.97 75.02-694.06 29.99 2.83 62.55-421.6 36.96 5.49c38.93 25.99 19.22 505.39 13.28 584.36-12.62 167.7-132.9 385.39-86.76 552.63l276.63-1458.1-1.85-68.52-84.09 384-50.93-1.47-4.25-645.2-65.69 301.74-406.11 2047.3c-81.4-0.42-496.82 8.32-541.5-9.74l191.28-954.28-891.45-0.26c-18.41 19.36-181.95 863.52-202.36 963.01l-537.29-7.89 339.22-1733.3 131.14-609.53 17.52 4.18 505.97-2.73 12.29 10.64-39.77 181.73-134.56 698.95 12.52 9.14 876.23-3.34 197.67-898.82 517.46-11.89c-33.5-34.93-505.13-40.15-549.01 1.71-40.57 38.72-63.65 385.37-122.89 467.67l-26.93-62.65c-3.23 61.8-14.2 463.97-32.14 487.28-87.26-0.87-798.54 0.85-820.28-13.01l116.01-621.56 12.92 171.47c42.37-11.57 23.04-279.23 21.83-334.2-3.25-147.03-113.41-107.41-240.61-110.81-65.24-1.75-300.74-17.67-343.26 15.57-68.63 53.62-25.16 254.71-95.1 265.68l-12.67-80.75-81.16 718.98-16.27-15.55-117.51 558.95-20.94-5.29-68.99 512.53"/>
   <path class="fil13" d="m6801.1 4360c-155.62 290.54-204.97 452.48-409.1 742.75-156.05 221.92-367.24 394.99-578.9 559.71l-11.12 105.42 426.68-351.55 648.02-919.23-48.37-7.47 92.74 154.67 30.86-8.02-266.77 483.49 28.14 17.66 300.78-509.93c-4.72-74.82 195.21-444.86 219.29-876.74 9.96-178.64 33.68-918.17-54.38-1039.6l26.46 395.29-97.43-553.2-27.8 45.52-40.95-25.93 0.75 87.82c-23.19 17.08-73.88-18.04-75.62 95.6-1.13 74.02-16.89 115.09 30.55 166.96 38.67 42.29 48.1 323.42 46.6 391.76-3.05 139.43-21.28 691.54-85.24 784.38l-31.05-79.14-124.15 339.84z"/>
   <path class="fil14" d="m5490.4 2042-4.78 99.2c-28.51 11.93-511.29 3.57-585.13 3.24-99.59-0.43-199.19-0.26-298.76-0.87-95.45-0.58-225.39 36.92-229.35-60.55-3.32-81.63 176.06-48.92 243.93-49.05 137.82-0.26 835.53-9.83 874.09 8.02zm208.73 519.93-2465.6-38.11-6.99-6.31 14.84-626.65 8.63 0.01 5.77 111.66 3.78 11.46 52.28-36.16h15.89l34.55 414.68-2.89-600.44-7.74-0.42 853.11 2.92 20.51 584.65 35.12 18.04 64.13-136.02-25.44-11.99c77.21-108.85 197.7-46.55 319.96-57.3 76.07-6.69 277.78-25.31 346.57-22.32 47.48 2.06 434.43 26 475.82 17.72 129.19-25.85 109.56 49.98 114.43-62.53l-47.84-155.69 8.69 0.15-1164.5-14.14-2.78-24.18 28.05-100.84 1117.4-34.51 34.04-58.51-1224.2 0.26-27.43 601.58-44.32-587.41c-39.34-50.93-938.04 43.68-914.68-77.08l218.27-9.53-0.28-175.68-17.71-0.17-5.17 139.76-17.4 0.61-16.39-320.86-7.59 298.88-110.75 4.42-98.4-49.15-2.06 9.75-11.69-84.69-10.65 1.08-10.14 153.75-12.23 0.3-60.68-717.95-14.06 1616-14.22 23.91 2572-2.89z"/>
   <path class="fil15" d="m5365.9 5364.7c-171.13 29.44-430.11 208.81-697.61 251.16-369.25 58.45-504.23 51.87-871.98 33.33-155.71-7.86-315.24 11.76-462.26 3.71-148.83-8.15-174.94-120.1-261.27-222.12-66.45-78.52-644.35-187.01 16.62 166.78 481.99 257.99 1049 328.4 1584.8 243.25 253.96-40.35 484.71-121.98 710.74-244.02 275.6-148.81 533.9-327.21-19.07-232.09z"/>
   <path class="fil1" d="m967.44 3128.5 219.69 5.73-0.21 7.86c137.29 163.54-131.5 155.81-213.83 158.12l-1.27 13.85 40 218.35 318.27 0.13 362.32-0.91 138.97-230.12c-77.66-6.07-380.12 6.82-423.28-23.24-44.06-30.69-47.38-117.67 8.65-141.56 31.53-13.45 174.16-7.53 219.34-7.85 519.81-3.73 266.62-15.56 647.43-245.3l-1296.8 2.82-19.3 242.11z"/>
   <path class="fil16" d="m1690.1 4275.5 53.9 211.94c78.14 149.16-309.81 13.38-397.6 60.34l-5.44 34.59 540.51 108.19-43.88-130.62-9.64 22.11 411.93 177.13 124.43-25.86 58.91 56.19 32.11-45.86c20.26 19.13-16.89 60.89 49.28 36.55 62.86-23.11 257.31 1.34 326.27 7.34 237.88 20.69 62.83 46.99 152.65 80.82 28.27 10.65 159.98 29.43 142.93 109.53l-62.12 34.74 88.56-14.31c14.92-76.65 138.48 53.59 228.88-9.44 33.02-23.02 135.01 18.97 147.34 31.21 29.18 28.94 12.43 4.36 43.77 18.04 19.44 8.49 34.17 50.34 66.66 66.77l-154.28-277.5 164.78-159.15c-15.82-37.95-30.35 23.01-72.28 23.3-84.01 0.58-34.08-16.62-92.55-25.19-84.15-12.34-118.36-64.25-183.07 16.93-36.48 45.77-113.57 39.54-158.01 14.05-58.11-33.33-44.72 30.88-62.97-29.56-20.73-68.69-41.94-4.57-64.74-4.87l-120.25-201.32 70.36 168.97c112.95 167.72-464.36 75.26-607.9-15.42-185.37-117.09-291.41-336.09-298.59-550.79l2.14 212.7-15.77 17.86-175.51-97.95 5.88 10.2-191.87-3.3 1.33-10.22 3.87 81.86z"/>
   <path class="fil7" d="m3496.2 4263.7 163.94-174.5 185.22-0.62 16.9-27.49 61.66 125.48-13.94-109.93 65.49-53.14 33.04 20.52-222.77 481.31-135.69 142.92-164.78 159.15 154.28 277.5 153.22 240.76-8.5 5.36c-87.09 25.51-403.11 37.97-454.58-37.89-35.62-52.49-158.84-263.04-176.79-314.81l-88.56 14.31-627.34 12.67-875.76 47.58-0.81 28.71 1292.9 14.45 251.58-40.84 207.12 358.94 621.36-6.58-356.94-592.46 29.56 10.23 383.53-520.1 56.99-158.71-2.06-258.83c-22.57 14.81-356.9 7.64-410.58 7.98l-28.74-360.49c-38.12 12.7-7.55 316.38 0.99 355.03 33.36 151.11-76.21 241.56-109.92 353.48z"/>
   <path class="fil17" d="m5365.9 5364.7c552.97-95.11 294.67 83.28 19.07 232.09-226.03 122.04-456.79 203.66-710.74 244.02-535.79 85.15-1102.8 14.75-1584.8-243.25-660.97-353.79-83.07-245.29-16.62-166.78 86.33 102.02 112.44 213.97 261.27 222.12 147.01 8.05 306.54-11.57 462.26-3.71 367.75 18.54 502.73 25.13 871.98-33.33 267.49-42.35 526.48-221.72 697.61-251.16zm-2266.5-24.98c-36.95-62.13-443.99-74.44-426.12 53.06 22.06 157.47 129.61 162.34 235.95 169.9 8.5 0.6 292.03 188.62 309.52 212.26 49.14 66.41 342.03-1.57 482.12 74.45 189.11 102.62 597.15 80.89 819.09 64.85 213.26-15.41 294.37-89.84 415.52-102.01 356.67-35.82 166.59 14.42 435.21-144.68 120.69-71.49 255.17-76.44 294.42-183.3 28.25-76.9 307.14-158.04-113.1-181.82-565.08-31.96-375.25 215.08-846.54 238.08-478.82 23.38-191.43 19.95-188.23 44.62 5.99 46.17-469.48 40.38-520.52 36.97-210.03-14.08-394.27-16.34-604.52-8.46-257.46 9.65-215.45-143.91-292.79-273.93z"/>
   <path class="fil18" d="m2555.8 2856.2-380.26 180.97 10.14 20.19c85.23 170.26 944.43-34.48 1113.7 132.87l318.55 313.33-20.46 16.81 66.25-0.51 28.33 131.06c17.2-87.21-26.66-137.49 111.11-97.98 36.43 10.45 171.18 9.57 185.54 10.35l-2.11 38.63 30.24-6.3-126.78-370.98c-21.77 20.57-80.92-149.09-134.37-58.11-18.71 31.86-98.3 41.43-133.71 26.6-28.48-11.92-3.07-42.6-49.08-38.63-41.86 3.61 12.9 30.43-61.05 9.31-74.64-21.31-22.54 29.76-123.34-6.17-141.27-50.37-103.22-142.41-337.32-122.49-199.52 16.98-158.56-45.5-312.89-132.72l7-57.82 444.74-52.11z"/>
   <path class="fil19" d="m5582 685.06 305.25 215.99 102.56 84.99 84.68-50.45 10.85 4.21-29.59-97.88c-579.78-532.33-1184.2-750-1967.9-779.45l32.35 106.15-143.5 11.4 1.82 22.91c1.8 0.89 373.26 42.87 432.77 52.77 156.6 26.06 253.34 34.92 415.92 77.26 164.41 42.81 654.41 228.37 754.84 352.12z"/>
   <path class="fil13" d="m1330.1 3532.6-318.27-0.13-185.05 18.38 37.46 12.14-3.98-10.12-153.42 46.06 5.73 17.23 276.44 99.85-2.56 11.46-538.11 4.05 576.29 11.52 597.93-18.99 7.32 11.07-41.51 236.6-7.62 144.86 83.85 395.23 52.5 34.23 15.45 0.43 11.43-59.01-53.9-211.94c-35.04-71.62-59.87-536.5 74.15-456.13l128.04-29.29 127.59 55.9 14.43-22.09-20.37-33.79 16.05-7.82 24.12 74.18 19.35-171.72 50.88 21.4 43.7-113.48-325.79-129.82 6.33-14.94c-16.09 32.93-68.98 128.94-98.96 139.76-43.63 15.74-198.55 18.84-231.02-3.13l-234.27-22.89 45.77-29.05z"/>
   <path class="fil20" d="m1413.9 4753.1-10.27-46.84c66.55-12.42 337.38-23.66 383.82 13.89 27.14 21.94 197.42 181.65 197.56 210.48l-443.99-0.02-124.17-170.17 100.94 177.02-399.55 27.93 0.56 30 3.5 113.56 6.68 19.84 518.52 6.52 1205.8-19.32-1292.9-14.45 0.81-28.71 875.76-47.58-555.51-334.75-540.51-108.19 5.44-34.59c87.79-46.96 475.74 88.81 397.6-60.34l-11.43 59.01-15.45-0.43-52.5-34.23-356.07 1.87-12.27 3.47-154.3-368.78 271.91 604.79z"/>
   <path class="fil21" d="m4542.2 5010.3c0.13-0.18 117.26-641.76 133.74-714.68 21.48-95.06 16.4-10.83-161.35-6.17-177.79 4.67-133.03-47.68-186.57-102.01l-169.86 822.53c50.37 21.34 311.21 10.8 384.04 0.33z"/>
   <path class="fil4" d="m3477.3 1903.5c6.51-10.38 465.44-29.38 522.49-33.49 149.09-10.74 140.25 290.05 96.47 404.55l-627.19 8.85zm-115.08 488.99 846-7.41-3.53-590.53-853.11-2.92 7.74 0.42 2.89 600.44z"/>
   <path class="fil19" d="m3890 3224.6c-82.14-219.04-473.46-436.16-700.02-432.13l-444.74 52.11-7 57.82c154.33 87.22 113.37 149.7 312.89 132.72 234.1-19.92 196.05 72.12 337.32 122.49 100.81 35.93 48.7-15.14 123.34 6.17 73.95 21.12 19.18-5.7 61.05-9.31 46.01-3.96 20.6 26.72 49.08 38.63 35.41 14.83 115 5.26 133.71-26.6 53.45-90.98 112.6 78.68 134.37 58.11z"/>
   <path class="fil20" d="m2896.2 4461.6 120.25 201.32c22.81 0.3 44.02-63.83 64.74 4.87 18.25 60.44 4.86-3.77 62.97 29.56 44.44 25.49 121.53 31.71 158.01-14.05 64.71-81.18 98.92-29.28 183.07-16.93 58.46 8.57 8.54 25.76 92.55 25.19 41.93-0.29 56.46-61.26 72.28-23.3l135.69-142.92-212.7-68.51-4.65 17.55-179.51-55.01-84.54 78.19-8.86-4.95-200.68-311.57-11.08 1.25-237.09 165.57 49.56 113.75z"/>
   <path class="fil8" d="m1881.5 4690.6 555.51 334.75 627.34-12.67 62.12-34.74c17.06-80.1-114.66-98.88-142.93-109.53-89.82-33.83 85.24-60.13-152.65-80.82-68.95-6-263.41-30.46-326.27-7.34-66.18 24.34-29.02-17.42-49.28-36.55l-32.11 45.86-58.91-56.19-124.43 25.86-411.93-177.13 9.64-22.11 43.88 130.62z"/>
   <polygon class="fil22" points="6311.1 3560.7 6454.4 2997.6 6449.6 3065.4 6515.3 2763.7 6497.9 2748.6 5980.4 2760.5 5782.8 3659.3 4871.5 3689.4 4863.1 3675.4 4855.9 3461.6 4787.3 3732.1 4798 3739 5848 3737.2 5973 3150.2 6035 2851.7 6407.4 2842.1 6412.7 2848.3 6386.9 3055.4 6282.9 3554.4"/>
   <path class="fil14" d="m2733 2417.6 111.21-50.99 30.17-724.79 21.27 12.81 104.87 9.85-0.57 270.89 2.47-715.89c-71.43-34.18-249-28.13-273.01 90.98-14.18 70.37-2.52 283.87-2.87 369.85-0.57 139.97-17.93 635.8 6.46 737.3z"/>
   <path class="fil23" d="m1261.6 1755.4 703.59-3.44 5.6-13.42-5.57-96.92-6.9-8-584.02-3.03 135.31-218.96 714.44 7.26c-54.4-22.51-128.38 1.11-107.06-88.23 72.53-29.87 331.83-31.45 422.57-24.7l-942.19-2.15 159.05-218.3-23.02-1.86c-454.28 502.36-248.05 552.15-541.77 555.1-45.41 0.46-296.34-3.12-231.16 109.32l301.1 7.32z"/>
   <path class="fil18" d="m5989.8 986.03c39.63 61.53 166.41 164.87 231.26 241.98 70.14 83.4 126.31 158.29 192.24 243.87 27.16 35.25 68.49 121.27 79.53 133.02 50.46 53.7 55.43 25.4 110.74 115.12 21.1 34.23 101.31 246.85 115.13 256.65l85.01-64.68 17.79 10.34-6.77 42.9c158.03-80.24-627.26-1092-759-1123.3l29.59 97.88-10.85-4.21-84.68 50.45z"/>
   <path class="fil15" d="m5700.5 4518.1 9.41 67.7 3.96-35.62 298.25 21.46 3.82-10.22-57.8-26.86 63.35-3.64 8.7-97.14 61.41 14.69-65.84 319.57 140.54-641.24 9.5-2.23 33.1 58.4-3.98-133.13-27.1-11.34-31.7 67.98c-149.88-0.08-46.24-86.82-318.21-29.25-65.81 13.93-122.52 352.8-127.41 440.86z"/>
   <path class="fil24" d="m6485.7 2507.8c-150.5 125.26-247.03-304.78-215.82-400.28 54.56-166.9 235.36 312.42 215.82 400.28zm-586.15-1059.1c12.85 439.09 6.85 241.99 214.37 584.28 56.54 93.25 234.97 516.01 260.68 541.61l174.41-1.24c57.69-211.51-460.43-987.4-634.41-1146.2l-15.06 21.58z"/>
   <polygon class="fil21" points="6091.6 4448.5 6030.2 4433.8 6021.5 4531 5958.1 4534.6 6015.9 4561.4 6012.1 4571.7 5713.9 4550.2 5709.9 4585.8 5700.5 4518.1 5605.2 5012.5 5614.6 5018.2 5981.9 5019.4 6025.8 4768.1"/>
   <path class="fil20" d="m1690.1 4275.5-3.87-81.86-1.33 10.22 191.87 3.3-5.88-10.2 175.51 97.95 15.77-17.86-2.14-212.7 64.32-358.22-50.88-21.4-19.35 171.72-24.12-74.18-16.05 7.82 20.37 33.79-14.43 22.09-127.59-55.9-128.04 29.29c-134.02-80.37-109.19 384.52-74.15 456.13z"/>
   <path class="fil4" d="m3361.2 1611.8 110.75-4.42 7.59-298.88c4.46 40.43 100.94 140.07 131.35 181.97 94.95 130.86 51.32 106.29 196.96 126.94l-1.59-513.68-121.76 3.79-0.35 309.08c-74.91-116.14-169.68-321.87-325.2-311.5l2.24 506.71z"/>
   <path class="fil8" d="m3152.9 4998.3c17.94 51.76 141.17 262.32 176.79 314.81 51.47 75.86 367.5 63.4 454.58 37.89l8.5-5.36-153.22-240.76c-32.49-16.43-47.22-58.28-66.66-66.77-31.34-13.69-14.6 10.9-43.77-18.04-12.33-12.24-114.32-54.23-147.34-31.21-90.4 63.03-213.97-67.21-228.88 9.44z"/>
   <polygon class="fil13" points="3845.3 4088.6 3660.1 4089.2 3496.2 4263.7 3388.8 4419.4 3568.4 4474.4 3573 4456.8 3785.7 4525.3 4008.5 4044 3975.4 4023.5 3910 4076.6 3923.9 4186.6 3862.2 4061.1"/>
   <polygon class="fil1" points="1142 4148.4 1296.3 4517.1 1308.5 4513.7 1664.6 4511.8 1580.8 4116.6 1580 4080.2 1580.3 4112.3"/>
   <polygon class="fil25" points="448.36 3731.5 986.47 3727.4 989.02 3716 712.58 3616.1 706.85 3598.9 860.26 3552.8 864.25 3563 826.79 3550.8 1011.8 3532.4 971.83 3314.1 985.88 3534.4 19.58 3550.6 14.72 3568.6 0 3725.4"/>
   <polygon class="fil20" points="1233.8 1925 1256.4 1774.6 1240.7 1823.7 1040.3 2574.8 1055.7 2480.6 1326.5 2471.9 1509.8 1936 1503.8 1924.4 1225.5 1924.2"/>
   <path class="fil20" d="m3477.3 1903.5 595.24 1.58 11.37 3.08-8.95 139.9-9.9-0.63c-104.55 61.54-593.5 95.91-587.76-143.92zm0 0-8.23 379.91 627.19-8.85c43.78-114.5 52.62-415.29-96.47-404.55-57.04 4.11-515.97 23.12-522.49 33.49z"/>
   <path class="fil26" d="m1142 4148.4 438.35-36.06-0.28-32.09 0.72 36.36 7.62-144.86-520.86-25.65c-35.65 56.21-430.75-51.02-377.16 123.89 41.18 134.41 373.61 2.11 451.61 78.41z"/>
   <polygon class="fil22" points="5026.1 2909.2 5028.6 2954.5 5068.3 2772.8 5056 2762.2 4550.1 2764.9 4532.5 2760.7 4401.4 3370.2 4393.3 3735.8 4412 3739.1 4542.7 3104.2 4577.2 2945.1 4602.3 2854.8 4619 2848 4966.8 2840.4 4973.3 2847.3 4945 2984.6 4919.1 3164.8 4890.4 3354.4 4918.9 3360.4"/>
   <path class="fil9" d="m2733 2417.6c23.66 137 241.41 157.65 264.77-2.51 14.82-101.57 4.72-365.16 2.18-479.73l0.57-270.89-104.87-9.85-21.27-12.81-30.17 724.79-111.21 50.99z"/>
   <path class="fil22" d="m6656.4 3094.8-276.63 1458.1-2.22 43.05c56.97-53.41 232.29-562.02 254.53-660.55 69.72-308.9 42.76-554.73 35.18-856.15z"/>
   <polygon class="fil1" points="1024.6 3743 1067.5 3946 1588.4 3971.7 1629.9 3735.1 1622.6 3724"/>
   <path class="fil4" d="m4556.6 1459c77.99 84.28 96.59-777.25 242.46-48.45l30.12 2.36 13.8 165.25-14.61 4.02-106.95-312.51-33.22 4.45-102.32 311.3c-79.16-45.72-97.92-35.41-135.6-179.66-22.69-86.86-56.9-180.06-68.34-273.45l28.31-8.69 137.38 339.68-100.74-351.06-122.65-1.05 164.43 503.06 118.75-1.41 102.11-318.85 95.74 314.7 125.25 3.1 139.83-502.61-106.21 3.5-104.23 341.12-102.42-347.04-104.46-0.11-96.46 352.36z"/>
   <path class="fil27" d="m5491.1 2381.7 1.34-102.61c-42.7-15.18-504.36-4.35-584.67-4.5-97.16-0.19-194.3-0.15-291.46-0.38-94.64-0.22-247.06-37.03-241.71 62.14 4.72 87.53 441.15 47.21 533.17 47.02 71.01-0.14 560.38 8.99 583.33-1.66z"/>
   <path class="fil27" d="m5485.6 2141.2 4.78-99.2c-38.56-17.85-736.27-8.29-874.09-8.02-67.87 0.13-247.25-32.58-243.93 49.05 3.96 97.47 133.9 59.97 229.35 60.55 99.56 0.61 199.17 0.43 298.76 0.87 73.84 0.33 556.62 8.69 585.13-3.24z"/>
   <path class="fil4" d="m5221.6 1250.5c38.39-140.95 248.9 46.21 258.25-91.77 5.3-78.28-222.84-64.07-278.79-37.95-96.38 45-122.7 169.63-39.26 240.11 66.07 55.8 269.33 43.23 219.25 136.4l-3.44 25.69-239.92-32.15-25.86 72.58c117.42 65.65 328.18 107.39 389.61-49.51 83.93-214.37-255.12-176.08-279.84-263.39z"/>
   <path class="fil13" d="m3359.1 678.21c63.89 16.19 595.03 7.24 703.4 7.09 1.17 0 855.45 5.73 520.27-63.99-196.83-40.94-452.22-61.75-652.58-52.65-64.07 2.91-562.47 67.86-571.09 109.56z"/>
   <polygon class="fil28" points="6270.1 3263.8 6411.3 2864.9 6035 2851.7 5999.6 3220.3 6030.1 3223.9 6068.2 3101.8 6081.8 3159.4 6216.5 3124.4"/>
   <path class="fil4" d="m4377.4 1830.1c2.37 111.66 106.33 69.14 224.32 69.58 133.92 0.5 863.06 7.01 890.57-0.63l2.55-103.46z"/>
   <path class="fil1" d="m1413.9 4753.1 2.95 7.35 124.17 170.17 443.99 0.02c-0.14-28.84-170.42-188.54-197.56-210.48-46.44-37.55-317.27-26.31-383.82-13.89l10.27 46.84z"/>
   <path class="fil29" d="m3477.3 1903.5c-5.74 239.83 483.21 205.46 587.76 143.92l9.9 0.63 8.95-139.9-11.37-3.08-595.24-1.58z"/>
   <path class="fil30" d="m6035 2851.7 376.29 13.15-141.2 398.92-53.55-139.43-134.73 34.98-13.61-57.61-38.06 122.14-30.54-3.56 35.4-368.6zm0 0-61.97 298.49 22.05 240.51 10.55-15.24 282.62 26.99 98.65-347.11 25.86-207.04-5.3-6.2-372.46 9.61z"/>
   <path class="fil13" d="m1763.8 1068.1-30.32 15.49 23.02 1.86 371.43-15.42-90.82-6.46 352.76-320.88-58.73 12.9c0.21-27.87 43.6-40.77 37.1-58.75-11.59-32.05-20.26-1.53-59.21-10.66-61.01-14.3-144.99 20.92-188.05 75.79-89.97 114.65-239.64 220.75-357.2 306.12z"/>
   <path class="fil24" d="m973.1 3300.2c82.33-2.3 351.11 5.42 213.83-158.12l0.21-7.86-219.69-5.73-1.76-5.46c-57.17 20.25-401.13-5.59-312.29 142.79l-1.14 20.11 320.86 14.27z"/>
   <path class="fil4" d="m4290.6 1523.9-263.29-12.43-1.08-105.32 232.31-5.57-2.1-98.61-224.77-0.12-0.08-97.15 241.08-12.64-233.75 0.58c39.36 8.56 84.34 6.4 125.65 6.68 74.11 0.5 101.27 22.1 101.28-52.48-47.16-29.5-275.26-6.9-327.96-6.22l-1.1 425.34c104.6 9.91 35.11-40.77 147.08-39.13 69.97 1.02 137.03 0.17 206.72-2.91z"/>
   <path class="fil31" d="m4542.7 3104.2 14.13 292.51 15.23-1.95c28.24 12.05 206.69 8.37 239.11-4.43 112.06-44.25 48.21-146.99 107.84-225.48l25.89-180.22c-61.65 70.1 13.21 338.27-211.71 225.12l-7.9-6.26 34.18-45.09-152.24 17.29-13.85 14.03-16.18-244.57-34.51 159.05z"/>
   <path class="fil32" d="m1827.3 1963.8c-55.61 8.09-121.42 24.75-37.38 87.02 42.28 31.32 512.18 23.54 551.89 15.81 46.15-8.98 88.95-62.09 30.78-94.31-36.07-19.97-131.63-13.64-175.41-13.87-113.14-0.58-261.57-10.42-369.88 5.35z"/>
   <path class="fil4 str1" d="m4556.6 1459-8.96 4.29-137.38-339.68-28.31 8.69c11.44 93.39 45.64 186.58 68.34 273.45 37.68 144.26 56.45 133.94 135.6 179.66l102.32-311.3 33.22-4.45 106.95 312.51 14.61-4.02-13.8-165.25-30.12-2.36c-145.86-728.8-164.47 132.73-242.46 48.45z"/>
   <path class="fil33" d="m4602.3 2854.8 3.01 221.77c43.5 42.04 3.47-19.02 44.78-5.06 15.32 5.18 13.56 11.47 54.7 3.44 46.4-9.06 62.63 23.86 104.16-9.67 37.95-30.63 157.76-102.53 115.21-205.18l-305.15-12.1z"/>
   <path class="fil11" d="m6485.7 2507.8c19.54-87.86-161.26-567.18-215.82-400.28-31.21 95.49 65.32 525.54 215.82 400.28z"/>
   <path class="fil28" d="m4602.3 2854.8-25.03 90.26 16.18 244.57 13.85-14.03 152.24-17.29-34.18 45.09 7.9 6.26c224.92 113.15 150.06-155.02 211.71-225.12l28.33-137.25-6.51-6.92-347.78 7.62 305.15 12.1c42.56 102.65-77.25 174.55-115.21 205.18-41.53 33.52-57.76 0.61-104.16 9.67-41.14 8.03-39.38 1.75-54.7-3.44-41.31-13.96-1.28 47.1-44.78 5.06l-3.01-221.77z"/>
   <path class="fil7" d="m609.74 2838.8c10.18-26.91 5.31-80.59-18.1-99.23-23.01-18.31-83.66-10.31-114.1-10.04-53.28 0.45-181.85-17.99-196.14 52-23.32 114.19 50.02 115.13 137.83 115.47 66.86 0.26 161.38 18.79 190.5-58.2z"/>
   <path class="fil26" d="m505.76 4077.5c44.41-92.64-51.67-122.03-122.7-122.62-73.64-0.61-157.66-14.57-196.31 55.96-46.71 85.24 44.48 116.02 115.69 118.19 71.23 2.17 168.18 21.76 203.32-51.53z"/>
   <path class="fil24" d="m2567.9 1715.9c21.64-115.29-126.16-81.72-203.1-80.93-45.93 0.47-92.64 1.82-138.48 0.64-41.62-1.07-94.16-12.98-106.51 40.73-20.43 88.84 154.71 78.53 201.27 78.56 66.83 0.05 208.16 22.7 246.83-39z"/>
   <path class="fil4 str1" d="m4290.6 1523.9c-69.69 3.09-136.75 3.93-206.72 2.91-111.97-1.64-42.48 49.04-147.08 39.13l1.1-425.34c52.7-0.68 280.8-23.28 327.96 6.22-0.01 74.58-27.17 52.98-101.28 52.48-41.31-0.28-86.29 1.89-125.65-6.68l233.75-0.58 2.14-87.28-364.87-0.68 6.84 501.89c30 21.2 311.63 11.83 372.2 7.61l1.61-89.69z"/>
   <path class="fil5" d="m603.37 5053.9c14.48 89.33 106.99 79.27 173.09 80.38 77.78 1.31 137.21-24 129.08-115.55-12.63-142.25-322.28-88.76-302.18 35.17z"/>
   <path class="fil34" d="m2224.1 1418.9c85.54-1.87 274.43 28.2 335.72-24.24 11.09-36.58 11.48-64.33-20.22-88.69-90.74-6.75-350.04-5.17-422.57 24.7-21.33 89.34 52.65 65.72 107.06 88.23z"/>
   <path class="fil32" d="m2572.4 2368.8c20.34-89.41-11.18-119.27-100.33-109.67-51.73 5.57-188.26-6.53-223.25 19.08-19.89 14.55-74.85 101.44 93.93 101.84 82.27 0.2 148.6 3.97 229.66-11.25z"/>
   <path class="fil35 str2" d="m6449.6 3065.4-406.11 2047.3c-81.41-0.42-496.82 8.32-541.5-9.74l191.28-954.28-891.44-0.26c-18.42 19.36-181.95 863.53-202.36 963.01l-537.29-7.89 339.22-1733.3 131.14-609.53 17.52 4.18 505.97-2.73 12.29 10.64-39.78 181.73-134.56 698.95 12.52 9.14 876.23-3.34 197.67-898.82 517.46-11.89c-33.5-34.93-505.14-40.15-549.01 1.71-40.58 38.72-63.65 385.37-122.89 467.67l-26.93-62.65c-3.23 61.8-14.21 463.97-32.14 487.28-87.26-0.87-798.54 0.85-820.28-13.01l116.01-621.56 12.92 171.47c42.37-11.57 23.03-279.22 21.82-334.2-3.25-147.03-113.41-107.41-240.61-110.81-65.24-1.75-300.74-17.67-343.26 15.56-68.63 53.63-25.16 254.72-95.1 265.68l-12.67-80.75-81.15 718.98-16.27-15.55-117.51 558.95-20.94-5.29-68.98 512.53-87.53 409.43 25.66 21.59 595.1-4.6 188.65-930.11 16.51 2.54 3.05 155.73 17.54 0.41 10.66-177.64 779.04 10.01-37.23 195.94-23.2-0.21-16.32-86.14c-15.94 90.93-32.04 285.69-39.71 383.08-5.16 65.5-72.41 343.24-71.75 348.33 19.44 150.72 201.06 104.87 328.08 102.56 166.02-3.03 230.67 42.21 347.74-83.79l-25.85-5.47 112.33-529.89 25.03 6.97 75.03-694.07 29.99 2.83 62.56-421.6 36.95 5.48c38.93 25.99 19.22 505.39 13.28 584.36-12.62 167.7-132.9 385.39-86.76 552.63l276.63-1458.1-1.85-68.52-84.09 384-50.93-1.46-4.25-645.2-65.69 301.74z"/>
   <path class="fil35 str1" d="m6449.6 3065.4-406.11 2047.3c-81.41-0.42-496.82 8.32-541.5-9.74l191.28-954.28-891.44-0.26c-18.42 19.36-181.95 863.53-202.36 963.01l-537.29-7.89 339.22-1733.3 131.14-609.53 17.52 4.18 505.97-2.73 12.29 10.64-39.78 181.73-134.56 698.95 12.52 9.14 876.23-3.34 197.67-898.82 517.46-11.89c-33.5-34.93-505.14-40.15-549.01 1.71-40.58 38.72-63.65 385.37-122.89 467.67l-26.93-62.65c-3.23 61.8-14.21 463.97-32.14 487.28-87.26-0.87-798.54 0.85-820.28-13.01l116.01-621.56 12.92 171.47c42.37-11.57 23.03-279.22 21.82-334.2-3.25-147.03-113.41-107.41-240.61-110.81-65.24-1.75-300.74-17.67-343.26 15.56-68.63 53.63-25.16 254.72-95.1 265.68l-12.67-80.75-81.15 718.98-16.27-15.55-117.51 558.95-20.94-5.29-68.98 512.53-87.53 409.43 25.66 21.59 595.1-4.6 188.65-930.11 16.51 2.54 3.05 155.73 17.54 0.41 10.66-177.64 779.04 10.01-37.23 195.94-23.2-0.21-16.32-86.14c-15.94 90.93-32.04 285.69-39.71 383.08-5.16 65.5-72.41 343.24-71.75 348.33 19.44 150.72 201.06 104.87 328.08 102.56 166.02-3.03 230.67 42.21 347.74-83.79l-25.85-5.47 112.33-529.89 25.03 6.97 75.03-694.07 29.99 2.83 62.56-421.6 36.95 5.48c38.93 25.99 19.22 505.39 13.28 584.36-12.62 167.7-132.9 385.39-86.76 552.63l276.63-1458.1-1.85-68.52-84.09 384-50.93-1.46-4.25-645.2-65.69 301.74z"/>
   <path class="fil35 str2" d="m4401.4 3370.2 131.14-609.53 17.52 4.18 505.97-2.73 12.29 10.64-39.78 181.73-134.56 698.95 12.52 9.14 876.23-3.34 197.67-898.82 517.46-11.89c-33.5-34.93-505.14-40.15-549.01 1.71-40.58 38.72-63.65 385.37-122.89 467.67l-26.93-62.65c-3.23 61.8-14.21 463.97-32.14 487.28-87.26-0.87-798.54 0.85-820.28-13.01l116.01-621.56 12.92 171.47c42.37-11.57 23.03-279.22 21.82-334.2-3.25-147.03-113.41-107.41-240.61-110.81-65.24-1.75-300.74-17.67-343.26 15.56-68.63 53.63-25.16 254.72-95.1 265.68l-12.67-80.75-81.15 718.98-16.27-15.55-117.51 558.95-20.94-5.29-68.98 512.53-87.53 409.43 25.66 21.59 595.1-4.6 188.65-930.11 16.51 2.54 3.05 155.73 17.54 0.41 10.66-177.64 779.04 10.01-37.23 195.94-23.2-0.21-16.32-86.14c-15.94 90.93-32.04 285.69-39.71 383.08-5.16 65.5-72.41 343.24-71.75 348.33 19.44 150.72 201.06 104.87 328.08 102.56 166.02-3.03 230.67 42.21 347.74-83.79l-25.85-5.47 112.33-529.89 25.03 6.97 75.03-694.07 29.99 2.83 62.56-421.6 36.95 5.48c38.93 25.99 19.22 505.39 13.28 584.36-12.62 167.7-132.9 385.39-86.76 552.63l276.63-1458.1-1.85-68.52-84.09 384-50.93-1.46-4.25-645.2-65.69 301.74-406.11 2047.3c-81.41-0.42-496.82 8.32-541.5-9.74l191.28-954.28-891.44-0.26c-18.42 19.36-181.95 863.53-202.36 963.01l-537.29-7.89 339.22-1733.3z"/>
   <path class="fil35 str2" d="m5028.6 2954.5-134.56 698.95 12.52 9.14 876.23-3.34 197.67-898.82 517.46-11.89c-33.5-34.93-505.14-40.15-549.01 1.71-40.58 38.72-63.65 385.37-122.89 467.67l-26.93-62.65c-3.23 61.8-14.21 463.97-32.14 487.28-87.26-0.87-798.54 0.85-820.28-13.01l116.01-621.56 12.92 171.47c42.37-11.57 23.03-279.22 21.82-334.2-3.25-147.03-113.41-107.41-240.61-110.81-65.24-1.75-300.74-17.67-343.26 15.56-68.63 53.63-25.16 254.72-95.1 265.68l-12.67-80.75-81.15 718.98-16.27-15.55-117.51 558.95-20.94-5.29-68.98 512.53-87.53 409.43 25.66 21.59 595.1-4.6 188.65-930.11 16.51 2.54 3.05 155.73 17.54 0.41 10.66-177.64 779.04 10.01-37.23 195.94-23.2-0.21-16.32-86.14c-15.94 90.93-32.04 285.69-39.71 383.08-5.16 65.5-72.41 343.24-71.75 348.33 19.44 150.72 201.06 104.87 328.08 102.56 166.02-3.03 230.67 42.21 347.74-83.79l-25.85-5.47 112.33-529.89 25.03 6.97 75.03-694.07 29.99 2.83 62.56-421.6 36.95 5.48c38.93 25.99 19.22 505.39 13.28 584.36-12.62 167.7-132.9 385.39-86.76 552.63l276.63-1458.1-1.85-68.52-84.09 384-50.93-1.46-4.25-645.2-65.69 301.74-406.11 2047.3c-81.41-0.42-496.82 8.32-541.5-9.74l191.28-954.28-891.44-0.26c-18.42 19.36-181.95 863.53-202.36 963.01l-537.29-7.89 339.22-1733.3 131.14-609.53 17.52 4.18 505.97-2.73 12.29 10.64-39.78 181.73z"/>
   <path class="fil35 str2" d="m4859.9 4359.6 10.66-177.64 779.04 10.01-37.23 195.94-23.2-0.21-16.32-86.14c-15.94 90.93-32.04 285.69-39.71 383.08-5.16 65.5-72.41 343.24-71.75 348.33 19.44 150.72 201.06 104.87 328.08 102.56 166.02-3.03 230.67 42.21 347.74-83.79l-25.85-5.47 112.33-529.89 25.03 6.97 75.03-694.07 29.99 2.83 62.56-421.6 36.95 5.48c38.93 25.99 19.22 505.39 13.28 584.36-12.62 167.7-132.9 385.39-86.76 552.63l276.63-1458.1-1.85-68.52-84.09 384-50.93-1.46-4.25-645.2-65.69 301.74-406.11 2047.3c-81.41-0.42-496.82 8.32-541.5-9.74l191.28-954.28-891.44-0.26c-18.42 19.36-181.95 863.53-202.36 963.01l-537.29-7.89 339.22-1733.3 131.14-609.53 17.52 4.18 505.97-2.73 12.29 10.64-39.78 181.73-134.56 698.95 12.52 9.14 876.23-3.34 197.67-898.82 517.46-11.89c-33.5-34.93-505.14-40.15-549.01 1.71-40.58 38.72-63.65 385.37-122.89 467.67l-26.93-62.65c-3.23 61.8-14.21 463.97-32.14 487.28-87.26-0.87-798.54 0.85-820.28-13.01l116.01-621.56 12.92 171.47c42.37-11.57 23.03-279.22 21.82-334.2-3.25-147.03-113.41-107.41-240.61-110.81-65.24-1.75-300.74-17.67-343.26 15.56-68.63 53.63-25.16 254.72-95.1 265.68l-12.67-80.75-81.15 718.98-16.27-15.55-117.51 558.95-20.94-5.29-68.98 512.53-87.53 409.43 25.66 21.59 595.1-4.6 188.65-930.11 16.51 2.54 3.05 155.73 17.54 0.41z"/>
   <path class="fil35 str2" d="m4859.9 4359.6 10.66-177.64 779.04 10.01-37.23 195.94-23.2-0.21-16.32-86.14c-15.94 90.93-32.04 285.69-39.71 383.08-5.16 65.5-72.41 343.24-71.75 348.33 19.44 150.72 201.06 104.87 328.08 102.56 166.02-3.03 230.67 42.21 347.74-83.79l-25.85-5.47 112.33-529.89 25.03 6.97 75.03-694.07 29.99 2.83 62.56-421.6 36.95 5.48c38.93 25.99 19.22 505.39 13.28 584.36-12.62 167.7-132.9 385.39-86.76 552.63l276.63-1458.1-1.85-68.52-84.09 384-50.93-1.46-4.25-645.2-65.69 301.74-406.11 2047.3c-81.41-0.42-496.82 8.32-541.5-9.74l191.28-954.28-891.44-0.26c-18.42 19.36-181.95 863.53-202.36 963.01l-537.29-7.89 339.22-1733.3 131.14-609.53 17.52 4.18 505.97-2.73 12.29 10.64-39.78 181.73-134.56 698.95 12.52 9.14 876.23-3.34 197.67-898.82 517.46-11.89c-33.5-34.93-505.14-40.15-549.01 1.71-40.58 38.72-63.65 385.37-122.89 467.67l-26.93-62.65c-3.23 61.8-14.21 463.97-32.14 487.28-87.26-0.87-798.54 0.85-820.28-13.01l116.01-621.56 12.92 171.47c42.37-11.57 23.03-279.22 21.82-334.2-3.25-147.03-113.41-107.41-240.61-110.81-65.24-1.75-300.74-17.67-343.26 15.56-68.63 53.63-25.16 254.72-95.1 265.68l-12.67-80.75-81.15 718.98-16.27-15.55-117.51 558.95-20.94-5.29-68.98 512.53-87.53 409.43 25.66 21.59 595.1-4.6 188.65-930.11 16.51 2.54 3.05 155.73 17.54 0.41z"/>
   <path class="fil35 str2" d="m4906.5 3662.6 876.23-3.34 197.67-898.82 517.46-11.89c-33.5-34.93-505.14-40.15-549.01 1.71-40.58 38.72-63.65 385.37-122.89 467.67l-26.93-62.65c-3.23 61.8-14.21 463.97-32.14 487.28-87.26-0.87-798.54 0.85-820.28-13.01l116.01-621.56 12.92 171.47c42.37-11.57 23.03-279.22 21.82-334.2-3.25-147.03-113.41-107.41-240.61-110.81-65.24-1.75-300.74-17.67-343.26 15.56-68.63 53.63-25.16 254.72-95.1 265.68l-12.67-80.75-81.15 718.98-16.27-15.55-117.51 558.95-20.94-5.29-68.98 512.53-87.53 409.43 25.66 21.59 595.1-4.6 188.65-930.11 16.51 2.54 3.05 155.73 17.54 0.41 10.66-177.64 779.04 10.01-37.23 195.94-23.2-0.21-16.32-86.14c-15.94 90.93-32.04 285.69-39.71 383.08-5.16 65.5-72.41 343.24-71.75 348.33 19.44 150.72 201.06 104.87 328.08 102.56 166.02-3.03 230.67 42.21 347.74-83.79l-25.85-5.47 112.33-529.89 25.03 6.97 75.03-694.07 29.99 2.83 62.56-421.6 36.95 5.48c38.93 25.99 19.22 505.39 13.28 584.36-12.62 167.7-132.9 385.39-86.76 552.63l276.63-1458.1-1.85-68.52-84.09 384-50.93-1.46-4.25-645.2-65.69 301.74-406.11 2047.3c-81.41-0.42-496.82 8.32-541.5-9.74l191.28-954.28-891.44-0.26c-18.42 19.36-181.95 863.53-202.36 963.01l-537.29-7.89 339.22-1733.3 131.14-609.53 17.52 4.18 505.97-2.73 12.29 10.64-39.78 181.73-134.56 698.95 12.52 9.14z"/>
   <path class="fil0 str0" d="m4062.2 5103.5 339.22-1733.3 131.14-609.53 17.52 4.18 505.97-2.73 12.29 10.64-39.78 181.73-134.56 698.95 12.52 9.14 876.23-3.34 197.67-898.82 517.46-11.89c-33.5-34.93-505.14-40.15-549.01 1.71-40.58 38.72-63.65 385.37-122.89 467.67l-26.93-62.65c-3.23 61.8-14.21 463.97-32.14 487.28-87.26-0.87-798.54 0.85-820.28-13.01l116.01-621.56 12.92 171.47c42.37-11.57 23.03-279.22 21.82-334.2-3.25-147.03-113.41-107.41-240.61-110.81-65.24-1.75-300.74-17.67-343.26 15.56-68.63 53.63-25.16 254.72-95.1 265.68l-12.67-80.75-81.15 718.98-16.27-15.55-117.51 558.95-20.94-5.29-68.98 512.53-87.53 409.43 25.66 21.59 595.1-4.6 188.65-930.11 16.51 2.54 3.05 155.73 17.54 0.41 10.66-177.64 779.04 10.01-37.23 195.94-23.2-0.21-16.32-86.14c-15.94 90.93-32.04 285.69-39.71 383.08-5.16 65.5-72.41 343.24-71.75 348.33 19.44 150.72 201.06 104.87 328.08 102.56 166.02-3.03 230.67 42.21 347.74-83.79l-25.85-5.47 112.33-529.89 25.03 6.97 75.03-694.07 29.99 2.83 62.56-421.6 36.95 5.48c38.93 25.99 19.22 505.39 13.28 584.36-12.62 167.7-132.9 385.39-86.76 552.63l276.63-1458.1-1.85-68.52-84.09 384-50.93-1.46-4.25-645.2-65.69 301.74-406.11 2047.3c-81.41-0.42-496.82 8.32-541.5-9.74l191.28-954.28-891.44-0.26c-18.42 19.36-181.95 863.53-202.36 963.01l-537.29-7.89z"/>
   <path class="fil0" d="m6667.3 3079.3c7.58 301.43 34.54 547.26-35.18 856.15-22.24 98.53-197.56 607.14-254.53 660.55l2.22-43.06c-46.14-167.23 74.14-384.92 86.76-552.63 5.94-78.97 25.64-558.37-13.28-584.36l-36.95-5.48-62.56 421.6-29.99-2.83-75.03 694.07-25.03-6.97-112.33 529.89 25.85 5.47c-117.07 125.99-181.72 80.75-347.74 83.79-127.02 2.31-308.65 48.17-328.08-102.56-0.65-5.09 66.59-282.83 71.75-348.33 7.68-97.39 23.77-292.15 39.71-383.08l16.32 86.14 23.2 0.21 37.23-195.94-779.04-10.01-10.66 177.64-17.54-0.41-3.05-155.73-16.51-2.54-188.65 930.11-595.1 4.6-25.66-21.59 87.53-409.43-63.23-426.43-48.17 47.07-383.53 520.1-29.56-10.23 356.94 592.45-621.36 6.58-207.11-358.95-251.58 40.84-1205.8 19.32 18.21 13.33c290.26 194.41-18.03 210.66 495.55 206.32 231.32-1.95 241.42 135.32 440.55 263.76 336.96 217.32 562.96 351.7 959.6 454.04 898.26 231.77 1491 39 2251.8-410.33 211.66-164.72 422.85-337.8 578.91-559.71 204.13-290.27 253.48-452.21 409.09-742.75l85.71-305.85-9.74-388.21-32.33-0.12-7.35 192.29-77.46 23.02-6.77-296.32-85.95-505.51zm-2670.5 2542.8c51.04 3.42 526.51 9.2 520.52-36.96-3.2-24.67-290.58-21.24 188.23-44.62 471.29-23 281.46-270.04 846.54-238.08 420.24 23.77 141.35 104.92 113.1 181.82-39.26 106.86-173.74 111.82-294.42 183.3-268.62 159.1-78.55 108.87-435.21 144.68-121.15 12.17-202.26 86.59-415.52 102.01-221.94 16.04-629.97 37.76-819.09-64.85-140.09-76.02-432.98-8.04-482.11-74.45-17.49-23.64-301.02-211.66-309.52-212.26-106.34-7.56-213.89-12.43-235.95-169.9-17.86-127.5 389.17-115.19 426.12-53.06 77.34 130.02 35.32 283.58 292.79 273.93 210.24-7.88 394.48-5.62 604.52 8.46z"/>
   <path class="fil0" d="m5552 5302.5c-565.08-31.96-375.25 215.08-846.54 238.08-478.82 23.38-191.43 19.95-188.23 44.62 5.99 46.16-469.48 40.38-520.52 36.96-210.03-14.07-394.27-16.34-604.52-8.46-257.46 9.65-215.45-143.91-292.79-273.93-36.95-62.14-443.99-74.44-426.12 53.06 22.06 157.47 129.61 162.34 235.95 169.9 8.5 0.6 292.03 188.62 309.52 212.26 49.13 66.41 342.03-1.56 482.11 74.45 189.11 102.62 597.15 80.89 819.09 64.85 213.26-15.41 294.37-89.84 415.52-102.01 356.67-35.81 166.59 14.42 435.21-144.68 120.69-71.48 255.17-76.44 294.42-183.3 28.25-76.9 307.14-158.05-113.1-181.82zm-2217.9 350.46c147.01 8.06 306.54-11.57 462.25-3.71 367.75 18.54 502.73 25.13 871.98-33.33 267.49-42.35 526.48-221.72 697.61-251.16 552.97-95.11 294.67 83.29 19.07 232.1-226.03 122.03-456.79 203.66-710.74 244.01-535.79 85.15-1102.8 14.75-1584.8-243.25-660.96-353.8-83.07-245.29-16.62-166.77 86.33 102.02 112.44 213.97 261.27 222.11z"/>
   <path class="fil0" d="m6449.6 3065.4-406.11 2047.3c-81.41-0.42-496.82 8.32-541.5-9.74l191.28-954.28-891.44-0.26c-18.42 19.36-181.95 863.53-202.36 963.01l-537.29-7.89 339.22-1733.3 131.14-609.53 17.52 4.18 505.97-2.73 12.29 10.64-39.78 181.73-134.56 698.95 12.52 9.14 876.23-3.34 197.67-898.82 517.46-11.89c-33.5-34.93-505.14-40.15-549.01 1.71-40.58 38.72-63.65 385.37-122.89 467.67l-26.93-62.65c-3.23 61.8-14.21 463.97-32.14 487.28-87.26-0.87-798.54 0.85-820.28-13.01l116.01-621.56 12.92 171.47c42.37-11.57 23.03-279.22 21.82-334.2-3.25-147.03-113.41-107.41-240.61-110.81-65.24-1.75-300.74-17.67-343.26 15.56-68.63 53.63-25.16 254.72-95.1 265.68l-12.67-80.75-81.15 718.98-16.27-15.55-117.51 558.95-20.94-5.29-68.98 512.53-87.53 409.43 25.66 21.59 595.1-4.6 188.65-930.11 16.51 2.54 3.05 155.73 17.54 0.41 10.66-177.64 779.04 10.01-37.23 195.94-23.2-0.21-16.32-86.14c-15.94 90.93-32.04 285.69-39.71 383.08-5.16 65.5-72.41 343.24-71.75 348.33 19.44 150.72 201.06 104.87 328.08 102.56 166.02-3.03 230.67 42.21 347.74-83.79l-25.85-5.47 112.33-529.89 25.03 6.97 75.03-694.07 29.99 2.83 62.56-421.6 36.95 5.48c38.93 25.99 19.22 505.39 13.28 584.36-12.62 167.7-132.9 385.39-86.76 552.63l276.63-1458.1-1.85-68.52-84.09 384-50.93-1.46-4.25-645.2-65.69 301.74z"/>
  </g>
 </g>
</svg>
