<svg width="37" height="37" viewBox="0 0 37 37" fill="none" xmlns="http://www.w3.org/2000/svg">
<rect width="37" height="37" rx="18.5" fill="white"/>
<mask id="mask0_2930_22" style="mask-type:luminance" maskUnits="userSpaceOnUse" x="6" y="5" width="25" height="25">
<path d="M31 5H6V30H31V5Z" fill="white"/>
</mask>
<g mask="url(#mask0_2930_22)">
<path d="M21.8427 5C22.1107 5.00001 22.4738 6.24577 22.7904 7.60598C23.1071 8.96616 23.5373 10.9129 23.5763 10.9207C23.6152 10.9284 24.4941 9.23822 25.1235 8.06344C25.753 6.88867 26.3992 5.8407 26.6545 5.94328C26.9092 6.04567 26.9616 7.61821 26.9559 9.16883C26.9503 10.7087 26.9366 10.9293 26.9032 12.2585C26.8699 13.5876 26.8221 16.5791 26.9032 17.8134C26.9843 19.0477 27.0107 19.5416 27.2595 20.3471C27.6252 21.5313 28.2437 22.5809 29.0441 23.3693C29.3392 23.6601 29.6766 23.8857 30.0406 23.9975C30.6301 24.1785 31.0605 24.8713 31.019 25.6814C30.976 26.5165 30.6338 27.1954 29.6908 27.1954H24.5801V29.697C24.5801 29.8716 24.4678 30.0131 24.3293 30.0131H22.7751C22.6366 30.0131 22.5243 29.8716 22.5243 29.697V27.1954H21.1905V29.697C21.1905 29.8716 21.0782 30.0131 20.9397 30.0131H19.3856C19.2471 30.0131 19.1348 29.8716 19.1348 29.697V27.1954H17.8009V29.697C17.8009 29.8716 17.6886 30.0131 17.55 30.0131H15.996C15.8575 30.0131 15.7452 29.8716 15.7452 29.697V27.1954H14.4113V29.697C14.4113 29.8716 14.299 30.0131 14.1605 30.0131H12.6064C12.4679 30.0131 12.3556 29.8716 12.3556 29.697V27.1954C12.3556 27.1954 10.7329 27.0667 8.04246 26.1786C6.96467 25.8229 6.0004 25.3326 6 24.9977C5.99961 24.662 6.97524 24.2061 8.04605 23.8068C9.11685 23.4075 10.6786 22.8253 10.687 22.7604C10.6952 22.6954 9.35163 21.5393 8.42896 20.7452C7.50625 19.9511 6.68764 19.1396 6.76968 18.8201C6.85181 18.5002 7.89456 18.4474 9.01285 18.4854C10.1311 18.5235 11.7554 18.5799 11.779 18.5219C11.8026 18.4639 10.8101 16.8447 10.1261 15.728C9.44215 14.6114 8.86088 13.5177 9.0175 13.2455C9.17458 12.9725 10.1851 13.3318 11.2429 13.8062C12.3006 14.2806 13.8232 14.966 13.8592 14.9208C13.8952 14.8756 13.3495 12.9581 12.9715 11.6253C12.5934 10.2924 12.3067 9.01887 12.5231 8.82048C12.7395 8.62206 13.6128 9.3583 14.5027 10.2222C15.3925 11.0861 16.6714 12.3306 16.7165 12.3014C16.7617 12.2721 16.7131 10.2354 16.6807 8.82077C16.6483 7.40605 16.6882 6.08343 16.9426 5.97913C17.1975 5.87464 17.8489 6.9185 18.484 8.08904C19.1191 9.25958 20.0269 10.9377 20.0766 10.9276C20.1264 10.9172 20.5784 8.96612 20.895 7.60598C21.2116 6.24577 21.5748 5 21.8427 5ZM24.9734 15.7946C20.9595 15.7946 17.5657 20.0722 17.5657 25.1315C17.5657 25.3323 17.5726 25.5311 17.5828 25.7287H28.4456C28.4412 25.6737 28.4324 25.6201 28.4324 25.5634C28.4324 25.2002 28.5297 24.868 28.6889 24.5969C28.2249 24.3928 27.6625 24.039 27.2052 23.4283C26.6977 22.7063 26.3189 21.8686 25.9626 20.4724C25.6741 19.3428 25.727 15.8244 25.7271 15.8162C25.5702 15.8035 25.1328 15.7946 24.9734 15.7946Z" fill="#2D3748"/>
<path d="M22.7147 24.0898C23.4549 24.0898 24.0549 23.0587 24.0549 21.7867C24.0549 20.5148 23.4549 19.4836 22.7147 19.4836C21.9746 19.4836 21.3746 20.5148 21.3746 21.7867C21.3746 23.0587 21.9746 24.0898 22.7147 24.0898Z" fill="#2D3748"/>
</g>
</svg>
